<svg xmlns="http://www.w3.org/2000/svg" xmlns:xlink="http://www.w3.org/1999/xlink" width="500" zoomAndPan="magnify" viewBox="0 0 375 374.999991" height="500" preserveAspectRatio="xMidYMid meet" version="1.0"><defs><g/></defs><rect x="-37.5" width="450" fill="#ffffff" y="-37.499999" height="449.999989" fill-opacity="1"/><rect x="-37.5" width="450" fill="#ffffff" y="-37.499999" height="449.999989" fill-opacity="1"/><rect x="-37.5" width="450" fill="#a64ac9" y="-37.499999" height="449.999989" fill-opacity="1"/><g fill="#fccd04" fill-opacity="1"><g transform="translate(1.289272, 253.874983)"><g><path d="M 71.71875 -152.375 C 105.476562 -152.375 122.359375 -138.257812 122.359375 -110.03125 C 122.359375 -102.21875 120.65625 -95.757812 117.25 -90.65625 C 113.851562 -85.550781 109.742188 -81.789062 104.921875 -79.375 L 104.921875 -78.109375 C 119.109375 -72.140625 126.203125 -61.425781 126.203125 -45.96875 C 126.203125 -27.382812 120.597656 -14.332031 109.390625 -6.8125 C 99.597656 -0.425781 87.535156 2.765625 73.203125 2.765625 C 58.878906 2.765625 40.363281 1.414062 17.65625 -1.28125 L 18.734375 -70.015625 L 17.65625 -149.390625 C 39.363281 -151.378906 57.382812 -152.375 71.71875 -152.375 Z M 51.5 -25.328125 C 60.007812 -24.472656 67.597656 -24.046875 74.265625 -24.046875 C 80.941406 -24.046875 85.484375 -25.675781 87.890625 -28.9375 C 90.304688 -32.207031 91.515625 -37.566406 91.515625 -45.015625 C 91.515625 -52.460938 89.773438 -57.601562 86.296875 -60.4375 C 82.816406 -63.269531 77.671875 -64.6875 70.859375 -64.6875 L 51.28125 -64.6875 Z M 51.078125 -90.65625 L 72.5625 -90.65625 C 78.519531 -90.65625 82.632812 -92.003906 84.90625 -94.703125 C 87.175781 -97.398438 88.3125 -102.007812 88.3125 -108.53125 C 88.3125 -115.0625 87 -119.640625 84.375 -122.265625 C 81.75 -124.890625 77.316406 -126.203125 71.078125 -126.203125 L 51.078125 -125.34375 Z M 51.078125 -90.65625 "/></g></g></g><g fill="#fccd04" fill-opacity="1"><g transform="translate(117.905418, 253.874983)"><g><path d="M 54.484375 -118.96875 C 48.523438 -113.570312 45.546875 -98.988281 45.546875 -75.21875 C 45.546875 -51.457031 48.664062 -36.457031 54.90625 -30.21875 C 58.59375 -26.8125 64.617188 -25.109375 72.984375 -25.109375 C 81.359375 -25.109375 87.535156 -25.535156 91.515625 -26.390625 L 91.515625 -58.515625 L 69.796875 -60.015625 L 69.796875 -84.0625 L 124.0625 -84.0625 L 124.0625 -7.015625 C 117.96875 -4.460938 110.203125 -2.191406 100.765625 -0.203125 C 91.328125 1.773438 82.707031 2.765625 74.90625 2.765625 C 67.101562 2.765625 60.257812 2.160156 54.375 0.953125 C 48.488281 -0.242188 42.742188 -2.582031 37.140625 -6.0625 C 31.535156 -9.539062 26.816406 -14.046875 22.984375 -19.578125 C 14.753906 -32.066406 10.640625 -50.648438 10.640625 -75.328125 C 10.640625 -106.265625 16.882812 -127.125 29.375 -137.90625 C 35.75 -143.4375 42.734375 -147.226562 50.328125 -149.28125 C 57.921875 -151.34375 68.3125 -152.375 81.5 -152.375 C 94.695312 -152.375 108.816406 -150.53125 123.859375 -146.84375 L 120.03125 -119.8125 C 100.875 -121.9375 85.9375 -123 75.21875 -123 C 64.507812 -123 57.597656 -121.65625 54.484375 -118.96875 Z M 54.484375 -118.96875 "/></g></g></g><g fill="#fccd04" fill-opacity="1"><g transform="translate(234.308773, 253.874983)"><g><path d="M 71.71875 -152.375 C 105.476562 -152.375 122.359375 -138.257812 122.359375 -110.03125 C 122.359375 -102.21875 120.65625 -95.757812 117.25 -90.65625 C 113.851562 -85.550781 109.742188 -81.789062 104.921875 -79.375 L 104.921875 -78.109375 C 119.109375 -72.140625 126.203125 -61.425781 126.203125 -45.96875 C 126.203125 -27.382812 120.597656 -14.332031 109.390625 -6.8125 C 99.597656 -0.425781 87.535156 2.765625 73.203125 2.765625 C 58.878906 2.765625 40.363281 1.414062 17.65625 -1.28125 L 18.734375 -70.015625 L 17.65625 -149.390625 C 39.363281 -151.378906 57.382812 -152.375 71.71875 -152.375 Z M 51.5 -25.328125 C 60.007812 -24.472656 67.597656 -24.046875 74.265625 -24.046875 C 80.941406 -24.046875 85.484375 -25.675781 87.890625 -28.9375 C 90.304688 -32.207031 91.515625 -37.566406 91.515625 -45.015625 C 91.515625 -52.460938 89.773438 -57.601562 86.296875 -60.4375 C 82.816406 -63.269531 77.671875 -64.6875 70.859375 -64.6875 L 51.28125 -64.6875 Z M 51.078125 -90.65625 L 72.5625 -90.65625 C 78.519531 -90.65625 82.632812 -92.003906 84.90625 -94.703125 C 87.175781 -97.398438 88.3125 -102.007812 88.3125 -108.53125 C 88.3125 -115.0625 87 -119.640625 84.375 -122.265625 C 81.75 -124.890625 77.316406 -126.203125 71.078125 -126.203125 L 51.078125 -125.34375 Z M 51.078125 -90.65625 "/></g></g></g></svg>