<svg xmlns="http://www.w3.org/2000/svg" xmlns:xlink="http://www.w3.org/1999/xlink" width="512" zoomAndPan="magnify" viewBox="0 0 384 383.999986" height="512" preserveAspectRatio="xMidYMid meet" version="1.0"><defs><filter x="0%" y="0%" width="100%" height="100%" id="addda4ea82"><feColorMatrix values="0 0 0 0 1 0 0 0 0 1 0 0 0 0 1 0 0 0 1 0" color-interpolation-filters="sRGB"/></filter><g/><mask id="dd0bd371f0"><g filter="url(#addda4ea82)"><rect x="-38.4" width="460.8" fill="#000000" y="-38.399999" height="460.799983" fill-opacity="0.4667"/></g></mask><clipPath id="2234cd3052"><rect x="0" width="257" y="0" height="185"/></clipPath><clipPath id="4a53bdf959"><path d="M 89.1875 91.832031 L 191.9375 91.832031 L 191.9375 178.082031 L 89.1875 178.082031 Z M 89.1875 91.832031 " clip-rule="nonzero"/></clipPath></defs><rect x="-38.4" width="460.8" fill="#ffffff" y="-38.399999" height="460.799983" fill-opacity="1"/><rect x="-38.4" width="460.8" fill="#ffffff" y="-38.399999" height="460.799983" fill-opacity="1"/><rect x="-38.4" width="460.8" fill="#a64ac9" y="-38.399999" height="460.799983" fill-opacity="1"/><g mask="url(#dd0bd371f0)"><g transform="matrix(1, 0, 0, 1, 59, 109)"><g clip-path="url(#2234cd3052)"><g fill="#fccd04" fill-opacity="1"><g transform="translate(0.73768, 139.38641)"><g><path d="M 50.9375 -108.234375 C 74.925781 -108.234375 86.921875 -98.207031 86.921875 -78.15625 C 86.921875 -72.613281 85.710938 -68.023438 83.296875 -64.390625 C 80.878906 -60.765625 77.957031 -58.097656 74.53125 -56.390625 L 74.53125 -55.484375 C 84.601562 -51.242188 89.640625 -43.632812 89.640625 -32.65625 C 89.640625 -19.445312 85.660156 -10.175781 77.703125 -4.84375 C 70.742188 -0.300781 62.175781 1.96875 52 1.96875 C 41.820312 1.96875 28.671875 1.007812 12.546875 -0.90625 L 13.296875 -49.734375 L 12.546875 -106.125 C 27.960938 -107.53125 40.757812 -108.234375 50.9375 -108.234375 Z M 36.578125 -17.984375 C 42.628906 -17.378906 48.019531 -17.078125 52.75 -17.078125 C 57.488281 -17.078125 60.710938 -18.234375 62.421875 -20.546875 C 64.140625 -22.867188 65 -26.675781 65 -31.96875 C 65 -37.257812 63.765625 -40.910156 61.296875 -42.921875 C 58.828125 -44.941406 55.175781 -45.953125 50.34375 -45.953125 L 36.4375 -45.953125 Z M 36.28125 -64.40625 L 51.546875 -64.40625 C 55.785156 -64.40625 58.707031 -65.359375 60.3125 -67.265625 C 61.925781 -69.179688 62.734375 -72.457031 62.734375 -77.09375 C 62.734375 -81.726562 61.800781 -84.976562 59.9375 -86.84375 C 58.070312 -88.707031 54.921875 -89.640625 50.484375 -89.640625 L 36.28125 -89.046875 Z M 36.28125 -64.40625 "/></g></g></g><g fill="#fccd04" fill-opacity="1"><g transform="translate(83.574167, 139.38641)"><g><path d="M 38.703125 -84.5 C 34.460938 -80.675781 32.34375 -70.320312 32.34375 -53.4375 C 32.34375 -36.5625 34.5625 -25.90625 39 -21.46875 C 41.625 -19.050781 45.90625 -17.84375 51.84375 -17.84375 C 57.789062 -17.84375 62.175781 -18.144531 65 -18.75 L 65 -41.578125 L 49.578125 -42.625 L 49.578125 -59.71875 L 88.140625 -59.71875 L 88.140625 -4.984375 C 83.804688 -3.171875 78.285156 -1.554688 71.578125 -0.140625 C 64.878906 1.265625 58.753906 1.96875 53.203125 1.96875 C 47.660156 1.96875 42.796875 1.535156 38.609375 0.671875 C 34.429688 -0.179688 30.351562 -1.84375 26.375 -4.3125 C 22.394531 -6.78125 19.046875 -9.976562 16.328125 -13.90625 C 10.484375 -22.78125 7.5625 -35.984375 7.5625 -53.515625 C 7.5625 -75.484375 11.992188 -90.296875 20.859375 -97.953125 C 25.398438 -101.890625 30.363281 -104.585938 35.75 -106.046875 C 41.144531 -107.503906 48.523438 -108.234375 57.890625 -108.234375 C 67.265625 -108.234375 77.296875 -106.925781 87.984375 -104.3125 L 85.265625 -85.109375 C 71.660156 -86.617188 61.050781 -87.375 53.4375 -87.375 C 45.832031 -87.375 40.921875 -86.414062 38.703125 -84.5 Z M 38.703125 -84.5 "/></g></g></g><g fill="#fccd04" fill-opacity="1"><g transform="translate(166.259486, 139.38641)"><g><path d="M 50.9375 -108.234375 C 74.925781 -108.234375 86.921875 -98.207031 86.921875 -78.15625 C 86.921875 -72.613281 85.710938 -68.023438 83.296875 -64.390625 C 80.878906 -60.765625 77.957031 -58.097656 74.53125 -56.390625 L 74.53125 -55.484375 C 84.601562 -51.242188 89.640625 -43.632812 89.640625 -32.65625 C 89.640625 -19.445312 85.660156 -10.175781 77.703125 -4.84375 C 70.742188 -0.300781 62.175781 1.96875 52 1.96875 C 41.820312 1.96875 28.671875 1.007812 12.546875 -0.90625 L 13.296875 -49.734375 L 12.546875 -106.125 C 27.960938 -107.53125 40.757812 -108.234375 50.9375 -108.234375 Z M 36.578125 -17.984375 C 42.628906 -17.378906 48.019531 -17.078125 52.75 -17.078125 C 57.488281 -17.078125 60.710938 -18.234375 62.421875 -20.546875 C 64.140625 -22.867188 65 -26.675781 65 -31.96875 C 65 -37.257812 63.765625 -40.910156 61.296875 -42.921875 C 58.828125 -44.941406 55.175781 -45.953125 50.34375 -45.953125 L 36.4375 -45.953125 Z M 36.28125 -64.40625 L 51.546875 -64.40625 C 55.785156 -64.40625 58.707031 -65.359375 60.3125 -67.265625 C 61.925781 -69.179688 62.734375 -72.457031 62.734375 -77.09375 C 62.734375 -81.726562 61.800781 -84.976562 59.9375 -86.84375 C 58.070312 -88.707031 54.921875 -89.640625 50.484375 -89.640625 L 36.28125 -89.046875 Z M 36.28125 -64.40625 "/></g></g></g></g></g></g><g clip-path="url(#4a53bdf959)"><path fill="#090909" d="M 191.4375 168.257812 C 191.070312 170.503906 189.695312 172.015625 187.117188 173.035156 C 186.933594 173.140625 186.789062 173.199219 186.644531 173.21875 C 186.011719 173.324219 184.1875 173.792969 181.894531 174.40625 C 177.222656 175.609375 170.832031 177.285156 168.273438 177.46875 C 167.496094 177.53125 166.695312 177.589844 165.855469 177.671875 C 163.542969 177.878906 161.125 178.082031 158.730469 178.082031 C 153.855469 178.082031 150.25 177.164062 147.421875 175.222656 C 144.800781 173.402344 142.140625 171.363281 140.601562 168.707031 C 139.066406 166.09375 138.78125 163.007812 138.492188 160.027344 C 138.472656 159.761719 138.453125 159.496094 138.410156 159.230469 C 137.917969 154.164062 137.53125 149.386719 137.265625 144.648438 C 135.050781 146.507812 132.53125 148.015625 130.09375 149.507812 L 129.828125 149.671875 C 128.949219 150.222656 128.027344 150.773438 127.144531 151.347656 C 126.757812 151.613281 126.347656 151.878906 125.9375 152.144531 C 125.058594 152.734375 124.074219 153.390625 123.050781 153.960938 C 122.273438 154.449219 121.390625 154.898438 120.347656 155.371094 C 120.160156 155.492188 119.957031 155.613281 119.773438 155.695312 C 119.199219 156.105469 118.523438 156.453125 117.847656 156.675781 C 117.152344 156.902344 116.433594 157.042969 115.777344 157.042969 C 115.574219 157.042969 115.390625 157.042969 115.226562 157.023438 C 113.585938 156.839844 112.296875 155.902344 111.355469 155.125 C 110.496094 154.714844 109.574219 154.105469 108.609375 153.265625 C 105.988281 151.324219 103.550781 148.976562 101.195312 146.691406 L 100.089844 145.628906 C 97.386719 143.011719 94.582031 140.316406 92.203125 137.316406 C 90.484375 135.96875 89.398438 133.515625 89.460938 131.066406 L 89.460938 131.046875 C 89.234375 128.511719 89.277344 125.9375 89.316406 123.425781 C 89.335938 122.589844 89.335938 121.753906 89.359375 120.914062 C 89.359375 119.28125 89.359375 117.523438 89.359375 115.378906 C 89.359375 114.910156 89.335938 114.398438 89.316406 113.972656 L 89.316406 113.949219 C 89.277344 112.96875 89.234375 111.96875 89.359375 110.988281 C 89.277344 110.007812 89.582031 108.863281 90.136719 108.066406 C 90.464844 107.597656 90.894531 107.351562 91.324219 107.109375 C 91.589844 106.964844 91.855469 106.824219 92.101562 106.679688 L 92.308594 106.578125 C 92.429688 106.496094 92.554688 106.433594 92.675781 106.375 C 92.71875 106.332031 92.757812 106.292969 92.796875 106.230469 C 92.941406 106.109375 93.105469 106.046875 93.269531 106.046875 L 93.3125 106.046875 L 93.414062 106.003906 C 93.476562 105.984375 93.515625 105.964844 93.554688 105.945312 C 96.363281 104.023438 99.457031 102.390625 102.425781 100.816406 L 103.019531 100.492188 C 103.488281 100.246094 103.941406 100 104.390625 99.753906 C 105.84375 98.980469 107.300781 98.121094 108.714844 97.304688 L 108.734375 97.285156 C 111.335938 95.773438 114.019531 94.222656 116.804688 92.976562 C 117.582031 92.21875 118.523438 91.832031 119.609375 91.832031 C 122.210938 91.832031 124.976562 93.996094 126.410156 95.304688 C 128.949219 97.082031 131.261719 99.183594 133.476562 101.226562 L 133.515625 101.265625 C 133.945312 101.65625 134.355469 102.042969 134.785156 102.429688 C 137.019531 104.472656 139.332031 106.433594 141.707031 108.457031 C 141.914062 108.640625 142.117188 108.824219 142.324219 109.027344 L 142.363281 109.046875 C 142.464844 109.128906 142.570312 109.191406 142.671875 109.273438 L 142.773438 109.335938 L 142.855469 109.394531 C 142.957031 109.457031 143.058594 109.539062 143.164062 109.601562 L 143.203125 109.621094 C 143.980469 109.867188 144.761719 110.785156 145.109375 111.355469 C 145.457031 111.929688 145.601562 112.5 145.539062 113.09375 C 145.703125 113.460938 145.703125 113.929688 145.703125 114.257812 L 145.703125 114.277344 C 145.703125 114.378906 145.703125 114.441406 145.703125 114.5 L 145.722656 114.664062 C 145.765625 115.378906 145.824219 116.175781 145.765625 116.972656 C 145.867188 118.566406 145.785156 120.199219 145.722656 121.792969 L 145.722656 121.894531 C 145.683594 122.957031 145.640625 123.898438 145.640625 124.816406 C 145.640625 125.0625 145.640625 125.285156 145.640625 125.550781 C 147.585938 125.101562 149.492188 124.835938 151.027344 124.613281 L 151.070312 124.613281 C 151.4375 124.550781 151.785156 124.507812 152.09375 124.46875 C 156.148438 123.855469 160.941406 123.160156 165.691406 122.609375 C 168.335938 122.304688 170.667969 122.058594 172.839844 121.875 C 172.984375 121.855469 173.128906 121.855469 173.269531 121.835938 C 173.863281 121.773438 174.5 121.730469 175.113281 121.730469 C 176.363281 121.730469 177.304688 121.976562 178.082031 122.488281 C 178.144531 122.527344 178.207031 122.570312 178.246094 122.628906 C 181.09375 123.121094 182.980469 125.511719 184.496094 127.449219 C 185.539062 128.777344 186.542969 130.25 187.503906 131.820312 C 187.648438 132.046875 187.792969 132.292969 187.957031 132.515625 C 188.632812 133.535156 189.308594 134.597656 189.472656 135.785156 C 190.433594 138.089844 190.515625 140.625 190.597656 143.054688 C 190.617188 143.503906 190.640625 143.933594 190.660156 144.382812 C 190.84375 148.179688 191.027344 152.285156 191.191406 156.410156 C 191.234375 157.515625 191.335938 158.636719 191.417969 159.84375 C 191.644531 162.640625 191.886719 165.582031 191.4375 168.257812 Z M 191.4375 168.257812 " fill-opacity="1" fill-rule="nonzero"/></g><path fill="#ffffff" d="M 139.679688 113.011719 C 139.96875 112.96875 140.152344 112.929688 140.335938 112.910156 C 140.335938 112.992188 140.378906 113.09375 140.398438 113.175781 C 140.582031 113.09375 140.746094 112.992188 140.929688 112.910156 L 140.949219 112.910156 L 140.972656 112.886719 C 141.074219 112.808594 141.195312 112.703125 141.320312 112.601562 C 141.257812 112.5 141.195312 112.398438 141.113281 112.253906 C 141.339844 112.253906 141.523438 112.214844 141.667969 112.214844 C 141.6875 112.195312 141.6875 112.152344 141.707031 112.132812 C 142.078125 111.601562 141.894531 110.539062 137.058594 106.84375 C 136.671875 106.558594 136.34375 106.292969 136.160156 106.128906 C 134.644531 104.820312 133.125 103.433594 131.796875 102.207031 L 131.40625 101.839844 C 131.261719 101.695312 131.097656 101.574219 130.957031 101.429688 C 130.957031 101.429688 130.957031 101.429688 130.933594 101.410156 C 128.230469 98.960938 125.242188 96.550781 121.820312 94.097656 L 121.800781 94.078125 L 121.78125 94.078125 C 121 93.773438 120.285156 93.628906 119.566406 93.628906 C 118.890625 93.628906 118.238281 93.773438 117.601562 94.039062 L 117.5625 94.039062 C 115.410156 95.386719 113.117188 96.589844 110.90625 97.734375 L 110.84375 97.753906 C 109.039062 98.695312 106.992188 99.753906 105.085938 100.898438 C 103.921875 101.59375 102.753906 102.328125 101.566406 103.066406 C 99.066406 104.617188 96.261719 106.375 93.433594 107.78125 L 93.3125 107.84375 L 93.3125 107.964844 C 93.3125 108.292969 93.394531 108.679688 93.535156 109.046875 L 93.554688 109.128906 L 93.617188 109.171875 C 94.539062 109.683594 95.378906 110.335938 96.117188 110.90625 L 96.238281 110.988281 C 96.507812 111.191406 96.75 111.398438 97.019531 111.582031 C 98.511719 112.683594 100.007812 113.929688 101.605469 115.378906 L 101.648438 115.378906 C 104.800781 117.546875 107.648438 120.199219 109.859375 123.039062 L 109.878906 123.058594 L 109.902344 123.078125 C 110.433594 123.527344 110.964844 124.019531 111.558594 124.632812 L 111.582031 124.652344 C 111.621094 124.691406 111.664062 124.734375 111.683594 124.773438 L 111.765625 124.878906 L 111.867188 124.980469 C 111.988281 125.082031 112.113281 125.203125 112.257812 125.304688 C 113.035156 125.980469 113.996094 126.675781 115.082031 126.796875 C 115.082031 126.796875 115.144531 126.796875 115.144531 126.796875 L 115.164062 126.796875 C 115.800781 126.652344 116.433594 126.347656 117.050781 126.0625 L 117.375 125.898438 C 117.582031 125.796875 117.785156 125.714844 117.992188 125.632812 L 118.011719 125.632812 L 118.03125 125.613281 C 120.101562 124.039062 122.4375 122.753906 124.75 121.546875 C 124.6875 121.40625 124.628906 121.199219 124.503906 120.875 C 124.933594 120.933594 125.242188 120.914062 125.488281 121.015625 C 125.527344 121.039062 125.546875 121.078125 125.546875 121.121094 C 125.980469 120.894531 126.386719 120.691406 126.820312 120.464844 L 127.1875 120.28125 C 127.964844 119.894531 128.785156 119.464844 129.542969 119.054688 C 131.671875 117.933594 133.90625 116.726562 136.34375 115.378906 C 136.8125 115.113281 137.285156 114.847656 137.777344 114.542969 L 137.941406 114.441406 C 138.511719 114.09375 139.128906 113.726562 139.761719 113.378906 C 139.785156 113.359375 139.742188 113.214844 139.679688 113.011719 Z M 115.125 98.0625 C 115.246094 97.980469 115.371094 97.917969 115.511719 97.835938 C 115.492188 96.835938 116.105469 96.039062 116.945312 95.570312 C 116.945312 95.304688 116.925781 95.039062 116.988281 94.773438 C 117.007812 94.691406 117.316406 94.691406 117.5 94.648438 C 117.539062 94.855469 117.582031 95.039062 117.621094 95.28125 C 118.132812 95.121094 118.707031 95.058594 119.242188 95.121094 C 119.773438 95.097656 120.324219 95.222656 120.816406 95.464844 C 122.25 95.957031 123.378906 97.121094 122.988281 98.589844 C 122.640625 99.859375 121.390625 100.53125 120.082031 100.613281 C 118.339844 101.105469 116.148438 100.347656 115.636719 98.511719 C 115.511719 98.511719 115.390625 98.511719 115.265625 98.488281 C 115.183594 98.511719 115.082031 98.082031 115.125 98.0625 Z M 118.667969 111.03125 C 118.625 111.132812 118.402344 111.132812 118.238281 111.191406 C 118.195312 111.007812 118.09375 110.804688 118.113281 110.640625 C 118.132812 110.558594 118.359375 110.5 118.625 110.355469 C 118.644531 110.664062 118.726562 110.867188 118.667969 111.03125 Z M 114.40625 112.335938 C 114.140625 112.335938 113.855469 112.335938 113.585938 112.316406 C 113.527344 112.316406 113.503906 112.171875 113.382812 111.988281 C 113.773438 111.988281 114.058594 111.988281 114.324219 112.011719 C 114.367188 112.011719 114.386719 112.214844 114.40625 112.335938 Z M 102.894531 111.296875 C 100.992188 111.828125 98.125 111.273438 97.488281 109.128906 C 97.285156 108.4375 97.449219 107.660156 97.859375 107.027344 C 98.023438 106.636719 98.265625 106.25 98.636719 105.902344 C 100.296875 104.308594 103.570312 104.863281 104.78125 106.761719 C 105.90625 108.578125 104.902344 110.722656 102.894531 111.296875 Z M 105.066406 111.214844 C 105.027344 111.03125 105.25 110.785156 105.355469 110.582031 C 105.3125 111.050781 105.273438 111.5 105.25 111.5625 C 105.375 111.722656 105.128906 111.480469 105.066406 111.214844 Z M 108.792969 106.617188 C 106.519531 106.167969 104.882812 103.757812 106.417969 101.675781 C 106.871094 101.0625 107.566406 100.632812 108.34375 100.390625 C 108.363281 100.390625 108.363281 100.390625 108.386719 100.367188 C 110.023438 99.878906 112.011719 100.183594 113.054688 101.371094 C 114.203125 102.675781 113.914062 104.699219 112.625 105.496094 C 112.503906 105.617188 112.359375 105.71875 112.195312 105.800781 C 112.175781 105.820312 112.132812 105.820312 112.113281 105.84375 C 111.148438 106.578125 109.960938 106.84375 108.792969 106.617188 Z M 120.183594 121.753906 C 119.691406 123.875 117.335938 124.488281 115.429688 124.46875 C 113.464844 124.449219 111.785156 123.265625 111.90625 121.121094 C 112.03125 119.078125 114.488281 118.667969 116.105469 118.585938 C 116.269531 118.585938 116.414062 118.648438 116.515625 118.730469 C 116.699219 118.710938 116.90625 118.710938 117.070312 118.710938 C 118.808594 118.8125 120.675781 119.667969 120.183594 121.753906 Z M 119.976562 116.402344 C 119.917969 116.402344 119.855469 116.136719 119.730469 115.851562 C 120.082031 115.851562 120.304688 115.828125 120.488281 115.890625 C 120.570312 115.910156 120.570312 116.15625 120.613281 116.300781 C 120.40625 116.339844 120.183594 116.421875 119.976562 116.402344 Z M 121.453125 104.003906 C 121.757812 104.433594 122.046875 104.839844 122.355469 105.269531 C 122.148438 105.3125 121.921875 105.332031 121.574219 105.394531 C 121.472656 104.882812 121.371094 104.453125 121.269531 104.023438 C 121.351562 104.023438 121.453125 103.984375 121.453125 104.003906 Z M 121.351562 111.765625 C 121.351562 111.703125 121.738281 111.582031 121.78125 111.640625 C 122.003906 111.90625 122.191406 112.214844 122.394531 112.5 C 122.109375 112.5 121.839844 112.519531 121.410156 112.519531 C 121.390625 112.234375 121.308594 111.988281 121.351562 111.765625 Z M 123.726562 121.40625 C 123.601562 121.324219 123.542969 121.121094 123.355469 120.832031 C 123.707031 120.855469 123.910156 120.8125 124.03125 120.894531 C 124.136719 120.976562 124.136719 121.199219 124.175781 121.363281 C 124.03125 121.382812 123.847656 121.464844 123.726562 121.40625 Z M 127.882812 117.464844 C 126.226562 118.566406 123.664062 118.628906 122.148438 117.21875 C 120.367188 115.5625 121.820312 113.277344 123.871094 112.929688 C 125.097656 112.296875 126.714844 112.253906 127.964844 112.785156 C 130.238281 113.746094 129.644531 116.300781 127.882812 117.464844 Z M 135.257812 112.949219 C 135.15625 112.96875 135.050781 112.992188 134.929688 112.992188 C 133.78125 113.441406 132.410156 113.5 131.34375 112.867188 C 130.054688 112.113281 129.605469 110.5 130.15625 109.152344 C 130.402344 108.578125 130.792969 108.148438 131.304688 107.84375 C 131.203125 107.863281 131.097656 107.863281 130.996094 107.863281 C 130.933594 107.863281 130.894531 107.640625 130.773438 107.351562 C 131.121094 107.375 131.34375 107.351562 131.53125 107.414062 C 131.570312 107.433594 131.589844 107.558594 131.609375 107.679688 C 132.839844 107.109375 134.519531 107.230469 135.75 107.90625 C 135.933594 107.988281 136.117188 108.066406 136.28125 108.148438 C 136.710938 108.414062 136.976562 108.824219 137.121094 109.253906 C 137.183594 109.375 137.242188 109.476562 137.285156 109.601562 C 137.796875 111.089844 136.691406 112.601562 135.257812 112.949219 Z M 180.992188 153.65625 C 180.746094 151.53125 180.417969 148.917969 180.417969 147.546875 L 180.417969 147.507812 C 179.660156 142.054688 178.964844 136.070312 178.945312 135.191406 C 178.882812 134.128906 178.800781 133.210938 178.699219 132.332031 C 178.636719 131.78125 178.574219 131.25 178.492188 130.699219 C 178.390625 130.003906 178.308594 129.289062 178.246094 128.59375 C 178.226562 128.429688 178.207031 128.246094 178.1875 128.023438 C 178.105469 127.183594 178.003906 125.917969 177.570312 125.101562 C 177.164062 124.324219 176.300781 124.082031 175.851562 124.058594 L 175.808594 124.058594 C 174.828125 124.121094 173.824219 124.164062 172.859375 124.222656 C 171.058594 124.304688 169.195312 124.40625 167.371094 124.589844 C 164.523438 124.898438 161.617188 125.285156 158.832031 125.652344 C 158.03125 125.753906 157.273438 125.859375 156.496094 125.960938 L 155.863281 126.042969 C 152.460938 126.46875 148.9375 126.917969 145.539062 127.695312 C 145.496094 127.695312 145.457031 127.714844 145.394531 127.738281 C 145.148438 127.796875 144.925781 127.839844 144.679688 127.898438 C 144.496094 127.941406 144.332031 127.980469 144.144531 128.042969 C 144.042969 128.0625 143.960938 128.105469 143.859375 128.125 C 140.519531 129.085938 137.675781 130.738281 138.246094 134.558594 C 138.269531 134.699219 138.246094 134.824219 138.1875 134.925781 L 138.144531 134.988281 L 138.144531 135.046875 C 138.164062 135.253906 138.207031 135.457031 138.226562 135.660156 C 138.410156 136.949219 138.59375 138.234375 138.78125 139.5 C 138.863281 140.050781 138.921875 140.625 139.003906 141.175781 C 139.027344 141.277344 139.027344 141.378906 139.046875 141.503906 C 139.066406 141.726562 139.109375 141.953125 139.128906 142.175781 C 139.167969 142.441406 139.191406 142.707031 139.230469 142.972656 C 139.785156 147.363281 140.234375 151.589844 140.5625 155.800781 C 140.625 156.554688 140.664062 157.351562 140.707031 158.128906 C 140.847656 160.597656 140.992188 163.132812 141.6875 165.460938 L 141.730469 165.5625 L 141.851562 165.582031 C 144.308594 166.195312 146.746094 166.765625 149.390625 166.765625 C 149.511719 166.765625 149.65625 166.765625 149.777344 166.765625 C 152.339844 166.707031 167.230469 165.089844 175.421875 162.824219 C 175.296875 162.539062 175.195312 162.335938 175.113281 162.109375 C 175.605469 162.109375 176.117188 161.988281 176.546875 162.128906 C 176.648438 162.171875 176.753906 162.273438 176.8125 162.417969 C 178.863281 161.761719 180.296875 161.066406 180.707031 160.351562 L 180.726562 160.332031 L 180.726562 160.3125 C 180.992188 159.3125 181.238281 158.1875 181.238281 156.820312 C 181.320312 156.351562 181.175781 155.105469 180.992188 153.65625 Z M 172.453125 124.773438 C 172.636719 124.691406 172.859375 124.671875 173.066406 124.632812 C 173.085938 124.796875 173.1875 125.019531 173.105469 125.082031 C 172.984375 125.203125 172.777344 125.222656 172.492188 125.347656 C 172.472656 125.0625 172.410156 124.796875 172.453125 124.773438 Z M 152.914062 133.824219 C 153.015625 134.109375 153.074219 134.3125 153.136719 134.515625 C 152.789062 134.433594 152.421875 134.394531 152.09375 134.292969 C 152.03125 134.273438 152.03125 134.046875 151.992188 133.925781 C 152.277344 133.882812 152.5625 133.863281 152.914062 133.824219 Z M 145.046875 141.03125 C 144.453125 140.683594 144.023438 140.175781 143.738281 139.5625 C 143.613281 139.316406 143.53125 139.050781 143.46875 138.785156 C 143.410156 138.5 143.367188 138.195312 143.367188 137.886719 C 143.367188 137.664062 143.386719 137.417969 143.429688 137.191406 C 143.449219 137.050781 143.492188 136.90625 143.53125 136.765625 C 143.613281 136.519531 143.714844 136.273438 143.859375 136.027344 C 143.878906 135.945312 143.921875 135.886719 143.941406 135.824219 C 144.023438 135.640625 144.105469 135.457031 144.207031 135.292969 C 144.332031 135.070312 144.496094 134.863281 144.65625 134.660156 C 144.863281 134.433594 145.109375 134.210938 145.394531 134.046875 C 145.660156 133.882812 145.929688 133.761719 146.253906 133.679688 C 148.039062 133.191406 149.71875 134.25 150.453125 135.824219 C 151.171875 136.660156 151.4375 137.949219 151.152344 139.011719 C 150.617188 140.992188 148.632812 142.296875 146.605469 141.808594 C 146.03125 141.664062 145.539062 141.421875 145.128906 141.09375 C 145.109375 141.074219 145.089844 141.054688 145.046875 141.03125 Z M 153.894531 160.066406 C 153.75 160.3125 153.589844 160.539062 153.402344 160.761719 C 153.035156 161.355469 152.523438 161.886719 151.910156 162.230469 C 149.960938 163.375 147.566406 162.621094 146.378906 160.78125 C 145.640625 159.617188 145.394531 158.066406 145.804688 156.738281 C 146.359375 155.003906 147.832031 153.980469 149.613281 153.796875 C 151.070312 153.65625 152.625 154.289062 153.527344 155.429688 C 154.570312 156.777344 154.714844 158.578125 153.894531 160.066406 Z M 154.917969 136.949219 C 154.671875 137.132812 154.40625 137.292969 154.140625 137.457031 C 154.101562 137.253906 154.078125 137.070312 154.019531 136.722656 C 154.367188 136.660156 154.613281 136.621094 154.878906 136.601562 C 154.878906 136.601562 154.980469 136.90625 154.917969 136.949219 Z M 162.765625 147.34375 C 162.230469 149.324219 160.246094 150.632812 158.21875 150.140625 C 157.644531 150 157.152344 149.753906 156.742188 149.425781 C 156.722656 149.40625 156.679688 149.40625 156.660156 149.386719 C 155.226562 148.527344 154.695312 146.667969 155.164062 145.136719 C 155.246094 144.890625 155.347656 144.648438 155.492188 144.402344 C 155.882812 143.300781 156.660156 142.378906 157.867188 142.035156 C 159.652344 141.542969 161.328125 142.605469 162.066406 144.175781 C 162.785156 144.996094 163.050781 146.28125 162.765625 147.34375 Z M 165.589844 132.617188 C 165.671875 132.371094 165.773438 132.128906 165.917969 131.882812 C 166.308594 130.78125 167.085938 129.859375 168.292969 129.511719 C 170.074219 129.023438 171.753906 130.085938 172.492188 131.65625 C 173.210938 132.496094 173.476562 133.78125 173.1875 134.84375 C 172.65625 136.824219 170.667969 138.132812 168.640625 137.640625 C 168.070312 137.5 167.578125 137.253906 167.167969 136.925781 C 167.148438 136.90625 167.105469 136.90625 167.085938 136.886719 C 165.632812 136.007812 165.097656 134.148438 165.589844 132.617188 Z M 168.253906 157.515625 C 166.960938 156.207031 166.714844 154.328125 167.25 152.632812 C 167.863281 150.632812 169.625 149.46875 171.714844 149.855469 C 172.390625 149.976562 173.066406 150.324219 173.640625 150.773438 C 174.601562 151.265625 175.378906 152.101562 175.6875 153.285156 C 175.933594 154.207031 175.851562 155.207031 175.523438 156.105469 C 175.503906 156.144531 175.503906 156.1875 175.484375 156.207031 C 175.074219 157.25 174.292969 158.148438 173.25 158.597656 C 171.550781 159.292969 169.542969 158.820312 168.253906 157.515625 Z M 174.4375 160.433594 C 174.335938 160.414062 174.273438 160.191406 174.089844 159.863281 C 174.703125 159.964844 175.113281 160.007812 175.503906 160.109375 C 175.585938 160.128906 175.605469 160.375 175.648438 160.515625 C 175.238281 160.496094 174.847656 160.496094 174.4375 160.433594 Z M 175.953125 159.046875 C 175.933594 159.128906 175.6875 159.148438 175.460938 159.25 C 175.421875 158.984375 175.320312 158.761719 175.378906 158.660156 C 175.460938 158.554688 175.6875 158.535156 175.851562 158.496094 C 175.890625 158.679688 175.972656 158.863281 175.953125 159.046875 Z M 175.953125 159.046875 " fill-opacity="1" fill-rule="nonzero"/><path fill="#f5e6cc" d="M 114.40625 138.171875 C 114.324219 135.84375 114.242188 133.433594 114.46875 131.105469 L 114.46875 131.046875 L 114.425781 130.984375 C 113.527344 129.492188 112.523438 128.1875 111.640625 127.082031 L 111.601562 127.042969 C 110.269531 125.980469 109.226562 124.671875 108.589844 123.753906 L 108.550781 123.714844 C 105.90625 121.671875 103.347656 119.28125 100.949219 116.585938 L 100.929688 116.566406 L 100.910156 116.542969 C 99.269531 115.257812 97.613281 114.050781 95.992188 112.949219 C 95.480469 112.601562 94.929688 112.296875 94.394531 111.988281 L 94.394531 111.96875 C 93.824219 111.640625 93.25 111.316406 92.695312 110.949219 L 92.636719 110.90625 L 92.554688 110.90625 C 91.898438 110.96875 91.445312 111.132812 91.097656 111.398438 L 91.015625 111.457031 L 91.015625 111.5625 C 91.078125 112.355469 91.039062 113.214844 90.996094 113.949219 C 90.976562 114.378906 90.957031 114.890625 90.957031 115.359375 C 90.957031 117.257812 90.957031 119.078125 90.957031 120.894531 C 90.957031 121.488281 90.976562 122.078125 90.976562 122.671875 L 90.996094 123.40625 C 91.039062 125.734375 91.078125 128.125 90.914062 130.453125 L 90.914062 130.492188 C 91.015625 131.78125 91.242188 132.800781 91.632812 133.71875 C 91.9375 134.457031 92.390625 135.070312 92.757812 135.558594 L 92.757812 135.578125 L 92.777344 135.601562 C 94.4375 137.171875 96.054688 138.886719 97.488281 140.398438 L 97.613281 140.523438 C 98.839844 141.828125 100.109375 143.15625 101.378906 144.402344 C 102.671875 145.667969 104.085938 146.933594 105.332031 148.058594 C 107.011719 149.570312 108.734375 151.101562 110.308594 152.734375 L 110.332031 152.753906 L 110.414062 152.816406 C 110.554688 152.917969 110.679688 153 110.800781 153.082031 C 110.90625 153.144531 111.027344 153.226562 111.148438 153.328125 C 111.703125 153.714844 112.277344 154.082031 112.664062 154.125 C 112.726562 154.125 112.789062 154.125 112.828125 154.125 C 113.566406 154.125 113.8125 153.59375 114.121094 152.796875 C 114.179688 152.652344 114.242188 152.488281 114.304688 152.328125 C 114.304688 152.328125 114.304688 152.304688 114.324219 152.285156 L 114.34375 152.265625 C 114.34375 152.265625 114.367188 152.164062 114.367188 152.144531 L 114.367188 152.101562 C 114.242188 151.082031 114.261719 150.058594 114.304688 149.078125 C 114.386719 146.320312 114.449219 144.257812 114.46875 142.402344 C 114.488281 141.074219 114.449219 139.683594 114.386719 138.355469 Z M 96.097656 120.324219 C 95.992188 120.464844 95.871094 120.589844 95.707031 120.667969 C 95.050781 120.996094 94.253906 120.484375 93.84375 119.996094 C 93.800781 119.933594 93.761719 119.875 93.699219 119.8125 C 93.636719 119.75 93.597656 119.710938 93.554688 119.648438 C 92.59375 118.523438 91.261719 115.320312 93.003906 114.296875 C 95.050781 113.09375 96.464844 115.828125 96.566406 117.484375 C 96.566406 117.503906 96.566406 117.503906 96.566406 117.523438 C 96.609375 117.75 96.628906 118.015625 96.628906 118.300781 C 96.730469 119.179688 96.609375 119.976562 96.097656 120.324219 Z M 99.640625 134.539062 C 99.679688 134.679688 99.722656 134.804688 99.78125 134.925781 C 99.722656 134.804688 99.679688 134.660156 99.640625 134.539062 Z M 103.757812 135.84375 C 103.46875 137.214844 102.136719 138.214844 100.910156 137.109375 C 100.621094 136.84375 100.253906 136.171875 99.925781 135.335938 C 99.96875 135.375 100.007812 135.414062 100.027344 135.457031 C 100.316406 135.210938 100.480469 135.089844 100.644531 134.945312 C 100.296875 134.804688 99.96875 134.640625 99.617188 134.496094 C 99.085938 132.820312 98.800781 130.863281 99.578125 130.207031 C 99.742188 129.960938 99.988281 129.777344 100.375 129.738281 C 101.769531 129.574219 102.671875 131.554688 103.039062 132.617188 C 103.675781 133.558594 104.003906 134.742188 103.757812 135.84375 Z M 112.480469 148.710938 C 112.398438 149.039062 112.234375 149.304688 112.011719 149.507812 C 111.703125 149.875 111.230469 150.101562 110.597656 150.019531 C 109.449219 149.894531 108.875 148.730469 108.488281 147.671875 C 108.015625 146.894531 107.730469 145.996094 107.75 145.179688 C 107.75 144.996094 107.792969 144.851562 107.832031 144.707031 C 107.832031 144.707031 107.832031 144.6875 107.832031 144.6875 C 107.851562 144.628906 107.875 144.546875 107.914062 144.503906 C 108.179688 143.484375 109.203125 142.808594 110.25 143.441406 C 111.171875 143.992188 111.804688 145.136719 112.175781 146.21875 C 112.523438 147.058594 112.664062 147.957031 112.480469 148.710938 Z M 189.226562 164.664062 L 189.207031 164.296875 L 189.207031 164.214844 C 189.226562 163.96875 189.164062 162.988281 189.125 161.90625 C 188.507812 163.582031 187.074219 159.925781 187.363281 157.308594 C 187.710938 154.125 188.425781 155.371094 188.898438 157.207031 L 188.898438 156.964844 C 188.898438 156.921875 188.898438 156.882812 188.898438 156.839844 C 188.898438 156.777344 188.898438 156.738281 188.878906 156.699219 C 188.816406 155.347656 188.753906 153.839844 188.695312 152.203125 C 188.589844 152.246094 188.449219 152.285156 188.304688 152.328125 C 188.261719 151.980469 188.242188 151.777344 188.222656 151.570312 C 188.367188 151.550781 188.53125 151.53125 188.671875 151.511719 C 188.589844 149.242188 188.488281 146.792969 188.40625 144.339844 C 188.386719 143.542969 188.386719 142.746094 188.386719 141.890625 C 188.386719 140.726562 188.40625 139.519531 188.324219 138.355469 C 188.261719 137.558594 187.957031 136.785156 187.445312 136.070312 C 187.15625 135.703125 186.953125 135.273438 186.707031 134.84375 C 186.605469 134.640625 186.5 134.433594 186.378906 134.230469 C 185.683594 132.964844 184.925781 131.738281 184.148438 130.597656 C 183.960938 130.332031 183.777344 130.042969 183.59375 129.757812 C 182.589844 128.246094 181.464844 126.511719 180.050781 125.285156 L 179.722656 125 L 179.703125 125.429688 C 179.679688 125.960938 179.660156 126.46875 179.640625 126.980469 C 179.601562 127.859375 179.558594 128.738281 179.558594 129.617188 C 179.558594 130.964844 179.601562 132.332031 179.621094 133.476562 C 179.703125 134.375 179.742188 135.273438 179.785156 136.089844 C 179.84375 137.109375 180.214844 139.890625 180.664062 143.09375 C 180.828125 144.257812 180.992188 145.464844 181.15625 146.667969 L 181.15625 146.710938 L 181.175781 146.75 C 181.175781 146.773438 181.195312 146.792969 181.195312 146.792969 C 181.441406 147.710938 182.710938 154.757812 182.753906 155.921875 L 182.753906 155.960938 C 182.875 156.351562 182.957031 156.738281 183.039062 157.125 C 183.144531 157.636719 183.265625 158.167969 183.449219 158.660156 C 183.675781 159.3125 183.984375 159.902344 184.289062 160.496094 C 184.578125 161.046875 184.863281 161.621094 185.066406 162.191406 C 185.066406 162.210938 185.089844 162.234375 185.089844 162.253906 L 185.089844 162.3125 C 185.089844 162.3125 185.375 162.683594 185.5 162.84375 C 185.558594 162.90625 185.601562 162.96875 185.664062 163.050781 C 185.683594 163.050781 185.703125 163.050781 185.722656 163.070312 C 185.785156 163.089844 185.824219 163.191406 185.847656 163.292969 C 186.03125 163.519531 186.214844 163.765625 186.398438 163.988281 C 186.625 164.273438 186.871094 164.5625 187.097656 164.828125 L 187.136719 164.867188 C 187.179688 164.90625 187.21875 164.929688 187.238281 164.988281 C 187.238281 165.011719 187.257812 165.03125 187.257812 165.03125 L 187.257812 165.050781 L 187.28125 165.089844 C 187.75 165.683594 188.304688 166.398438 188.773438 167.195312 C 188.796875 167.214844 188.796875 167.234375 188.796875 167.234375 L 189.183594 167.175781 C 189.347656 166.398438 189.289062 165.519531 189.226562 164.664062 Z M 183.390625 139.234375 C 182.550781 141.15625 181.320312 138.378906 181.136719 137.558594 C 180.890625 136.4375 180.871094 135.253906 180.910156 134.109375 C 180.929688 133.394531 180.972656 132.230469 181.566406 131.71875 C 182.097656 131.25 182.445312 131.554688 182.691406 132.128906 C 182.792969 132.128906 182.917969 132.1875 182.957031 132.3125 C 183.449219 133.496094 183.574219 134.742188 183.59375 135.988281 C 183.632812 136.96875 183.796875 138.316406 183.390625 139.234375 Z M 186.378906 156.515625 C 185.988281 161.457031 183.203125 156.433594 183.675781 153.042969 C 184.167969 149.445312 185.171875 150.957031 185.824219 153.082031 C 185.558594 153.308594 185.292969 153.511719 185.027344 153.734375 C 185.394531 153.878906 185.742188 154.023438 186.113281 154.164062 C 186.296875 155.085938 186.421875 155.984375 186.378906 156.515625 Z M 185.804688 153.101562 C 185.847656 153.265625 185.90625 153.429688 185.949219 153.613281 C 185.90625 153.429688 185.867188 153.265625 185.804688 153.101562 Z M 186.664062 143.707031 C 185.519531 144.199219 185.273438 142.257812 185.171875 141.5625 C 184.945312 140.09375 184.742188 138.234375 185.476562 136.886719 C 185.539062 136.785156 185.664062 136.765625 185.765625 136.824219 C 187.074219 137.292969 187.363281 139.152344 187.527344 140.359375 C 187.628906 141.277344 187.792969 143.21875 186.664062 143.707031 Z M 107.957031 100.632812 C 107.976562 100.59375 107.996094 100.550781 108.015625 100.53125 C 108.117188 100.492188 108.242188 100.449219 108.34375 100.410156 C 108.363281 100.410156 108.363281 100.410156 108.386719 100.390625 C 108.488281 100.347656 108.609375 100.328125 108.734375 100.285156 C 108.773438 100.367188 108.792969 100.429688 108.773438 100.46875 C 108.652344 100.65625 108.386719 100.757812 108.160156 100.859375 C 108.097656 100.859375 107.933594 100.675781 107.957031 100.632812 Z M 133.988281 110.519531 C 133.722656 110.703125 133.453125 110.90625 133.125 111.113281 C 132.921875 110.949219 132.777344 110.847656 132.65625 110.742188 C 132.902344 110.539062 133.105469 110.273438 133.394531 110.171875 C 133.535156 110.109375 133.78125 110.398438 133.988281 110.519531 Z M 110.578125 147.75 C 110.453125 147.855469 110.332031 148.015625 110.207031 148.015625 C 110.066406 148.015625 109.902344 147.875 109.59375 147.710938 C 109.902344 147.546875 110.066406 147.40625 110.207031 147.425781 C 110.351562 147.445312 110.453125 147.628906 110.578125 147.75 Z M 111.988281 147.199219 C 111.804688 147.382812 111.621094 147.589844 111.417969 147.730469 C 111.375 147.75 111.191406 147.566406 110.679688 147.179688 C 111.089844 146.996094 111.335938 146.832031 111.601562 146.792969 C 111.703125 146.792969 111.847656 147.058594 111.988281 147.199219 Z M 174.109375 153.574219 C 173.925781 153.367188 173.742188 153.226562 173.742188 153.101562 C 173.742188 152.980469 173.945312 152.835938 174.070312 152.714844 C 174.191406 152.859375 174.375 152.980469 174.4375 153.144531 C 174.457031 153.226562 174.253906 153.367188 174.109375 153.574219 Z M 174.929688 154.574219 C 174.582031 154.757812 174.234375 154.960938 173.863281 155.125 C 173.78125 155.164062 173.597656 155.003906 173.269531 154.820312 C 173.84375 154.574219 174.214844 154.410156 174.601562 154.289062 C 174.683594 154.246094 174.828125 154.472656 174.929688 154.574219 Z M 169.234375 151.613281 C 169.339844 151.816406 169.460938 152.019531 169.746094 152.570312 C 169.605469 152.613281 169.378906 152.734375 169.195312 152.695312 C 169.09375 152.675781 168.910156 152.410156 168.929688 152.285156 C 168.96875 152.0625 169.132812 151.835938 169.234375 151.613281 Z M 175.523438 156.085938 C 175.503906 156.125 175.503906 156.167969 175.484375 156.1875 C 175.484375 156.1875 175.484375 156.207031 175.460938 156.207031 C 175.441406 156.1875 175.421875 156.167969 175.378906 156.144531 C 175.441406 156.144531 175.484375 156.105469 175.523438 156.085938 Z M 185.3125 151.835938 C 185.210938 151.960938 185.109375 152.101562 184.945312 152.304688 C 184.78125 152.121094 184.578125 151.960938 184.597656 151.898438 C 184.636719 151.753906 184.824219 151.589844 184.945312 151.570312 C 185.066406 151.550781 185.191406 151.734375 185.3125 151.835938 Z M 184.023438 154.820312 C 183.941406 154.941406 183.839844 155.085938 183.738281 155.207031 C 183.695312 154.980469 183.675781 154.738281 183.65625 154.511719 C 183.675781 154.511719 183.675781 154.511719 183.695312 154.492188 C 183.757812 154.472656 184.042969 154.796875 184.023438 154.820312 Z M 184.023438 154.820312 " fill-opacity="1" fill-rule="nonzero"/><path fill="#ffb48f" d="M 143.878906 115.871094 L 143.878906 115.789062 C 143.796875 115.378906 143.695312 114.910156 143.574219 114.460938 L 143.550781 114.359375 L 143.449219 114.316406 C 143.183594 114.214844 142.855469 114.175781 142.464844 114.175781 C 142.078125 114.175781 141.75 114.214844 141.585938 114.257812 L 141.542969 114.257812 L 141.503906 114.277344 C 140.4375 115.074219 139.25 115.746094 138.105469 116.402344 L 137.859375 116.542969 C 137.652344 116.667969 137.46875 116.769531 137.265625 116.890625 C 135.277344 118.054688 133.1875 119.136719 131.179688 120.199219 L 130.8125 120.40625 C 129.746094 120.976562 128.660156 121.527344 127.597656 122.097656 L 126.183594 122.855469 C 123.890625 124.082031 121.964844 125.101562 120.019531 126.121094 L 120 126.121094 L 119.8125 126.246094 C 119.710938 126.308594 119.628906 126.367188 119.527344 126.449219 L 119.507812 126.46875 C 119.160156 126.714844 118.832031 126.941406 118.523438 127.183594 L 118.503906 127.207031 L 118.484375 127.226562 C 118.339844 127.449219 118.175781 127.65625 118.011719 127.859375 L 117.929688 127.960938 C 117.457031 128.59375 117.007812 129.1875 116.699219 129.882812 C 116.414062 130.535156 116.3125 131.230469 116.210938 131.902344 L 116.1875 132.066406 L 116.1875 132.085938 C 116.394531 134.355469 116.332031 136.660156 116.25 138.910156 C 116.230469 139.847656 116.1875 140.664062 116.1875 141.503906 C 116.148438 145.117188 115.984375 148.691406 115.839844 151.695312 L 115.839844 151.734375 C 115.882812 151.980469 115.882812 152.246094 115.839844 152.492188 L 115.839844 152.550781 L 115.882812 152.613281 C 116.128906 153.0625 116.578125 153.429688 117.128906 153.59375 C 117.457031 153.695312 117.785156 153.695312 118.15625 153.714844 L 118.175781 153.714844 C 118.484375 153.714844 118.75 153.714844 119.035156 153.777344 L 119.078125 153.777344 L 119.117188 153.757812 C 119.566406 153.613281 120.019531 153.449219 120.488281 153.246094 C 121.082031 152.941406 121.617188 152.675781 122.167969 152.410156 C 123.296875 151.777344 124.421875 151.019531 125.507812 150.304688 L 125.589844 150.242188 C 126.121094 149.894531 126.714844 149.488281 127.269531 149.121094 C 128.066406 148.609375 128.867188 148.058594 129.644531 147.546875 L 129.808594 147.445312 C 131.753906 146.136719 133.761719 144.769531 135.851562 143.707031 L 135.890625 143.667969 C 136.34375 143.277344 136.835938 142.871094 137.304688 142.460938 C 137.160156 139.726562 137.058594 137.050781 136.996094 134.375 C 136.996094 134.332031 136.996094 134.273438 137.019531 134.230469 L 137.039062 134.171875 L 137.019531 134.109375 C 136.566406 132.496094 136.753906 131.066406 137.53125 129.839844 C 138.71875 128.003906 141.195312 126.835938 143.859375 126.082031 C 143.859375 125.613281 143.859375 125.164062 143.859375 124.714844 C 143.859375 123.773438 143.816406 122.8125 143.777344 121.792969 C 143.738281 119.894531 143.632812 117.808594 143.878906 115.871094 Z M 118.566406 133.535156 C 117.785156 132.742188 118.238281 131.554688 118.75 130.738281 C 119.589844 129.410156 122.109375 127.550781 123.5625 129.144531 C 124.300781 129.941406 123.992188 131.207031 123.4375 132.027344 C 123.171875 132.414062 122.824219 132.78125 122.4375 133.109375 C 122.210938 133.3125 121.964844 133.515625 121.71875 133.660156 C 120.796875 134.171875 119.382812 134.375 118.566406 133.535156 Z M 124.011719 147.34375 C 123.789062 148.570312 123.070312 149.835938 121.902344 150.242188 C 121.433594 150.40625 120.980469 150.386719 120.613281 150.222656 C 120.121094 150.203125 119.671875 150.019531 119.363281 149.550781 C 118.871094 148.8125 119.054688 147.914062 119.425781 147.179688 C 119.792969 146.425781 120.46875 145.667969 121.269531 145.199219 C 121.699219 144.871094 122.191406 144.667969 122.660156 144.6875 C 122.742188 144.6875 122.804688 144.707031 122.867188 144.75 C 122.886719 144.75 122.90625 144.75 122.925781 144.75 C 122.96875 144.75 122.988281 144.75 123.03125 144.769531 C 123.03125 144.769531 123.050781 144.769531 123.050781 144.769531 C 123.644531 144.871094 124.15625 145.261719 124.277344 145.914062 C 124.382812 146.402344 124.238281 146.894531 124.011719 147.34375 Z M 132.636719 135.703125 C 131.9375 136.355469 130.957031 136.867188 129.972656 136.84375 C 128.824219 136.824219 128.191406 135.863281 128.4375 134.804688 C 128.578125 134.148438 128.929688 133.476562 129.398438 132.902344 C 129.933594 131.882812 130.851562 131.023438 131.816406 130.984375 C 132.921875 130.941406 133.761719 131.882812 133.824219 132.945312 C 133.863281 133.964844 133.351562 135.007812 132.636719 135.703125 Z M 134.210938 137.007812 C 133.945312 136.90625 133.824219 136.417969 133.394531 135.742188 C 134.234375 135.988281 134.683594 136.089844 135.09375 136.273438 C 135.257812 136.355469 135.296875 136.660156 135.402344 136.867188 C 135.011719 136.925781 134.5625 137.132812 134.210938 137.007812 Z M 142.222656 119.585938 C 141.851562 121.015625 140.398438 122.285156 138.984375 122.671875 C 138.1875 122.875 137.222656 122.835938 136.730469 122.097656 C 136.300781 121.488281 136.464844 120.609375 136.792969 119.996094 C 137.058594 119.527344 137.40625 119.097656 137.859375 118.75 C 138.410156 118.074219 139.128906 117.503906 139.785156 117.199219 C 141.484375 116.421875 142.628906 117.972656 142.222656 119.585938 Z M 188.613281 168.871094 C 188.285156 168.585938 188.015625 168.195312 187.792969 167.871094 C 187.527344 167.460938 187.28125 167.03125 187.015625 166.480469 L 186.992188 166.460938 L 186.972656 166.441406 C 186.707031 166.152344 186.480469 165.910156 186.257812 165.644531 L 186.214844 165.601562 C 186.113281 165.542969 186.03125 165.480469 185.929688 165.398438 C 186.214844 166.050781 186.480469 166.644531 186.746094 167.214844 C 186.605469 167.214844 186.398438 167.277344 186.339844 167.214844 C 185.765625 166.5 185.210938 165.765625 184.636719 165.03125 C 184.863281 164.988281 185.089844 164.96875 185.3125 164.929688 C 185.089844 164.746094 184.882812 164.5625 184.660156 164.355469 L 184.617188 164.316406 L 184.554688 164.316406 C 184.472656 164.296875 184.390625 164.273438 184.332031 164.234375 C 184.023438 164.007812 183.757812 163.703125 183.511719 163.292969 L 183.492188 163.253906 L 183.449219 163.234375 C 182.9375 162.84375 182.40625 162.683594 181.730469 162.683594 C 181.238281 162.683594 180.683594 162.785156 180.234375 162.886719 C 180.214844 162.886719 180.195312 162.886719 180.152344 162.886719 C 180.132812 162.886719 180.113281 162.886719 180.089844 162.886719 L 180.007812 162.867188 L 179.949219 162.90625 C 178.453125 163.785156 176.445312 164.089844 174.828125 164.355469 C 171.222656 164.929688 167.964844 165.417969 164.6875 165.765625 C 164.117188 165.828125 163.582031 165.910156 163.089844 166.011719 C 160.570312 166.5 156.558594 167.074219 154.835938 167.316406 L 154.347656 167.378906 L 154.324219 167.378906 C 152.09375 168.15625 149.613281 168.828125 146.296875 169.585938 C 145.96875 169.6875 145.640625 169.832031 145.457031 170.015625 C 145.230469 170.257812 145.210938 170.546875 145.394531 170.890625 L 145.414062 170.914062 L 145.4375 170.933594 C 146.5625 171.953125 147.769531 172.832031 148.816406 173.566406 C 151.785156 175.652344 155.125 175.9375 157.992188 175.9375 C 158.238281 175.9375 158.503906 175.9375 158.75 175.9375 C 161.984375 175.894531 165.488281 175.710938 169.441406 175.386719 C 170.957031 175.261719 182.550781 173.242188 185.621094 171.730469 C 185.785156 171.648438 185.929688 171.585938 186.050781 171.523438 L 186.070312 171.523438 L 186.398438 171.28125 C 187.238281 170.648438 188.097656 169.992188 188.613281 169.175781 L 188.695312 169.035156 Z M 148.878906 171.363281 C 148.40625 171.257812 147.21875 170.972656 147.117188 170.382812 C 147.035156 169.933594 147.8125 169.75 148.121094 169.667969 C 148.9375 169.460938 149.800781 169.402344 150.640625 169.339844 C 151.128906 169.300781 151.621094 169.277344 152.132812 169.277344 C 152.605469 169.277344 156.597656 169.074219 157.890625 169.769531 C 158.296875 169.992188 157.726562 170.359375 157.519531 170.441406 C 157.132812 170.585938 156.722656 170.667969 156.3125 170.769531 C 155.347656 171.015625 154.367188 171.179688 153.382812 171.320312 C 151.910156 171.523438 150.351562 171.6875 148.878906 171.363281 Z M 152.769531 173.300781 C 152.378906 173.21875 151.398438 172.976562 151.316406 172.484375 C 151.253906 172.117188 151.886719 171.953125 152.15625 171.894531 C 152.832031 171.730469 153.546875 171.667969 154.242188 171.605469 C 154.652344 171.585938 155.0625 171.566406 155.472656 171.566406 C 155.863281 171.566406 159.179688 171.402344 160.265625 171.972656 C 160.613281 172.160156 160.121094 172.464844 159.957031 172.527344 C 159.628906 172.648438 159.28125 172.710938 158.953125 172.792969 C 158.15625 172.996094 157.335938 173.140625 156.515625 173.242188 C 155.308594 173.425781 153.996094 173.566406 152.769531 173.300781 Z M 163.007812 174.589844 C 162.683594 174.691406 162.355469 174.773438 162.027344 174.855469 C 161.226562 175.058594 160.429688 175.203125 159.609375 175.304688 C 158.378906 175.46875 157.109375 175.628906 155.882812 175.34375 C 155.492188 175.261719 154.507812 175.019531 154.429688 174.546875 C 154.367188 174.179688 155 174.015625 155.246094 173.957031 C 155.921875 173.792969 156.640625 173.730469 157.316406 173.691406 C 157.726562 173.667969 158.136719 173.648438 158.542969 173.648438 C 158.933594 173.648438 162.230469 173.484375 163.296875 174.039062 C 163.644531 174.222656 163.171875 174.527344 163.007812 174.589844 Z M 183.144531 164.988281 C 183.226562 165.011719 183.285156 165.4375 183.265625 165.4375 C 182.9375 165.582031 182.609375 165.683594 182.199219 165.828125 C 181.996094 165.378906 181.832031 165.050781 181.6875 164.746094 C 182.179688 164.828125 182.671875 164.867188 183.144531 164.988281 Z M 168.785156 168.441406 C 168.3125 168.339844 167.125 168.054688 167.023438 167.460938 C 166.941406 167.011719 167.71875 166.828125 168.027344 166.746094 C 168.847656 166.542969 169.707031 166.480469 170.546875 166.417969 C 171.039062 166.378906 171.53125 166.359375 172.042969 166.359375 C 172.511719 166.359375 176.507812 166.152344 177.796875 166.847656 C 178.207031 167.074219 177.632812 167.441406 177.429688 167.523438 C 177.039062 167.664062 176.628906 167.746094 176.21875 167.847656 C 175.257812 168.09375 174.273438 168.257812 173.292969 168.402344 C 171.816406 168.605469 170.261719 168.789062 168.785156 168.441406 Z M 172.675781 170.382812 C 172.289062 170.300781 171.304688 170.054688 171.222656 169.566406 C 171.160156 169.195312 171.796875 169.035156 172.0625 168.972656 C 172.738281 168.808594 173.457031 168.746094 174.152344 168.6875 C 174.5625 168.664062 174.972656 168.644531 175.378906 168.644531 C 175.769531 168.644531 179.085938 168.480469 180.171875 169.054688 C 180.519531 169.238281 180.03125 169.542969 179.867188 169.605469 C 179.539062 169.726562 179.191406 169.789062 178.863281 169.871094 C 178.0625 170.074219 177.246094 170.21875 176.425781 170.320312 C 175.214844 170.523438 173.90625 170.667969 172.675781 170.382812 Z M 182.917969 171.6875 C 182.589844 171.789062 182.261719 171.871094 181.933594 171.953125 C 181.136719 172.160156 180.335938 172.300781 179.519531 172.402344 C 178.289062 172.566406 177.019531 172.730469 175.789062 172.445312 C 175.402344 172.363281 174.417969 172.117188 174.335938 171.648438 C 174.273438 171.28125 174.910156 171.117188 175.15625 171.054688 C 175.832031 170.890625 176.546875 170.832031 177.222656 170.789062 C 177.632812 170.769531 178.042969 170.75 178.453125 170.75 C 178.839844 170.75 182.140625 170.585938 183.203125 171.136719 C 183.574219 171.320312 183.082031 171.628906 182.917969 171.6875 Z M 120.203125 132.453125 C 120.140625 132.636719 120 132.78125 119.894531 132.964844 C 119.773438 132.863281 119.671875 132.761719 119.464844 132.597656 C 119.691406 132.414062 119.835938 132.292969 119.976562 132.167969 C 120.058594 132.25 120.222656 132.394531 120.203125 132.453125 Z M 121.023438 131.515625 C 120.839844 131.515625 120.652344 131.371094 120.285156 131.1875 C 120.632812 130.964844 120.796875 130.78125 120.980469 130.757812 C 121.105469 130.757812 121.308594 130.984375 121.328125 131.148438 C 121.351562 131.269531 121.125 131.515625 121.023438 131.515625 Z M 121.023438 131.515625 " fill-opacity="1" fill-rule="nonzero"/><g fill="#fccd04" fill-opacity="1"><g transform="translate(72.412256, 286.311839)"><g><path d="M 6.140625 -13.046875 C 9.023438 -13.046875 10.46875 -11.835938 10.46875 -9.421875 C 10.46875 -8.753906 10.320312 -8.203125 10.03125 -7.765625 C 9.738281 -7.328125 9.390625 -7.003906 8.984375 -6.796875 L 8.984375 -6.6875 C 10.191406 -6.175781 10.796875 -5.257812 10.796875 -3.9375 C 10.796875 -2.34375 10.316406 -1.222656 9.359375 -0.578125 C 8.523438 -0.0351562 7.492188 0.234375 6.265625 0.234375 C 5.035156 0.234375 3.453125 0.117188 1.515625 -0.109375 L 1.609375 -6 L 1.515625 -12.796875 C 3.367188 -12.960938 4.910156 -13.046875 6.140625 -13.046875 Z M 4.40625 -2.171875 C 5.132812 -2.097656 5.785156 -2.0625 6.359375 -2.0625 C 6.929688 -2.0625 7.316406 -2.195312 7.515625 -2.46875 C 7.722656 -2.75 7.828125 -3.207031 7.828125 -3.84375 C 7.828125 -4.488281 7.675781 -4.929688 7.375 -5.171875 C 7.082031 -5.410156 6.644531 -5.53125 6.0625 -5.53125 L 4.390625 -5.53125 Z M 4.375 -7.765625 L 6.21875 -7.765625 C 6.726562 -7.765625 7.078125 -7.878906 7.265625 -8.109375 C 7.460938 -8.335938 7.5625 -8.726562 7.5625 -9.28125 C 7.5625 -9.84375 7.445312 -10.234375 7.21875 -10.453125 C 7 -10.679688 6.617188 -10.796875 6.078125 -10.796875 L 4.375 -10.734375 Z M 4.375 -7.765625 "/></g></g></g><g fill="#fccd04" fill-opacity="1"><g transform="translate(88.93825, 286.311839)"><g><path d="M 1.953125 -9.515625 C 2.679688 -10.472656 3.894531 -10.953125 5.59375 -10.953125 C 7.289062 -10.953125 8.492188 -10.476562 9.203125 -9.53125 C 9.921875 -8.582031 10.28125 -7.191406 10.28125 -5.359375 C 10.28125 -3.523438 9.921875 -2.132812 9.203125 -1.1875 C 8.492188 -0.238281 7.289062 0.234375 5.59375 0.234375 C 3.894531 0.234375 2.679688 -0.238281 1.953125 -1.1875 C 1.234375 -2.144531 0.875 -3.535156 0.875 -5.359375 C 0.875 -7.179688 1.234375 -8.566406 1.953125 -9.515625 Z M 7.390625 -5.359375 C 7.390625 -6.742188 7.265625 -7.660156 7.015625 -8.109375 C 6.773438 -8.566406 6.296875 -8.796875 5.578125 -8.796875 C 4.867188 -8.796875 4.382812 -8.566406 4.125 -8.109375 C 3.875 -7.648438 3.75 -6.734375 3.75 -5.359375 C 3.75 -3.984375 3.875 -3.0625 4.125 -2.59375 C 4.382812 -2.132812 4.867188 -1.90625 5.578125 -1.90625 C 6.296875 -1.90625 6.773438 -2.132812 7.015625 -2.59375 C 7.265625 -3.050781 7.390625 -3.972656 7.390625 -5.359375 Z M 7.390625 -5.359375 "/></g></g></g><g fill="#fccd04" fill-opacity="1"><g transform="translate(104.680951, 286.311839)"><g><path d="M 4.046875 0.234375 C 3.148438 0.234375 2.40625 -0.0703125 1.8125 -0.6875 C 1.21875 -1.3125 0.921875 -2.210938 0.921875 -3.390625 C 0.921875 -4.566406 1.335938 -5.421875 2.171875 -5.953125 C 3.003906 -6.492188 4.21875 -6.765625 5.8125 -6.765625 L 7.171875 -6.765625 C 7.171875 -7.578125 7.09375 -8.097656 6.9375 -8.328125 C 6.78125 -8.566406 6.425781 -8.6875 5.875 -8.6875 C 5.320312 -8.6875 4.707031 -8.625 4.03125 -8.5 C 3.363281 -8.382812 2.613281 -8.207031 1.78125 -7.96875 L 1.203125 -10 C 1.703125 -10.226562 2.414062 -10.441406 3.34375 -10.640625 C 4.269531 -10.847656 5.097656 -10.953125 5.828125 -10.953125 C 7.328125 -10.953125 8.394531 -10.609375 9.03125 -9.921875 C 9.675781 -9.234375 10 -8.234375 10 -6.921875 L 10 0 L 8.21875 0 L 7.859375 -1.1875 L 7.75 -1.1875 C 7.601562 -1.070312 7.410156 -0.9375 7.171875 -0.78125 C 6.929688 -0.625 6.484375 -0.414062 5.828125 -0.15625 C 5.171875 0.101562 4.578125 0.234375 4.046875 0.234375 Z M 7.171875 -4.65625 C 6.753906 -4.71875 6.1875 -4.75 5.46875 -4.75 C 4.757812 -4.75 4.304688 -4.65625 4.109375 -4.46875 C 3.910156 -4.289062 3.8125 -3.945312 3.8125 -3.4375 C 3.8125 -2.925781 3.890625 -2.570312 4.046875 -2.375 C 4.210938 -2.175781 4.46875 -2.078125 4.8125 -2.078125 C 5.4375 -2.078125 6.101562 -2.25 6.8125 -2.59375 L 7.171875 -2.765625 Z M 7.171875 -4.65625 "/></g></g></g><g fill="#fccd04" fill-opacity="1"><g transform="translate(120.605808, 286.311839)"><g><path d="M 4.140625 -9.953125 C 4.347656 -10.109375 4.707031 -10.3125 5.21875 -10.5625 C 5.738281 -10.820312 6.222656 -10.953125 6.671875 -10.953125 C 7.128906 -10.953125 7.492188 -10.882812 7.765625 -10.75 L 7.546875 -8.3125 C 7.203125 -8.34375 6.867188 -8.359375 6.546875 -8.359375 C 5.722656 -8.359375 4.960938 -8.140625 4.265625 -7.703125 L 4.265625 0 L 1.4375 0 L 1.4375 -10.71875 L 3.1875 -10.71875 L 3.546875 -9.578125 L 3.65625 -9.578125 C 3.78125 -9.679688 3.941406 -9.804688 4.140625 -9.953125 Z M 4.140625 -9.953125 "/></g></g></g><g fill="#fccd04" fill-opacity="1"><g transform="translate(133.033181, 286.311839)"><g><path d="M 10.09375 -13.859375 L 10.09375 0 L 8.265625 0 L 7.984375 -1.03125 L 7.875 -1.03125 C 6.601562 -0.1875 5.460938 0.234375 4.453125 0.234375 C 3.441406 0.234375 2.59375 -0.222656 1.90625 -1.140625 C 1.21875 -2.066406 0.875 -3.445312 0.875 -5.28125 C 0.875 -6.382812 1.003906 -7.320312 1.265625 -8.09375 C 1.523438 -8.875 1.878906 -9.46875 2.328125 -9.875 C 3.128906 -10.59375 4.082031 -10.953125 5.1875 -10.953125 C 5.820312 -10.953125 6.515625 -10.859375 7.265625 -10.671875 L 7.265625 -13.859375 Z M 7.265625 -8.296875 C 6.578125 -8.546875 5.957031 -8.671875 5.40625 -8.671875 C 4.863281 -8.671875 4.5 -8.570312 4.3125 -8.375 C 3.96875 -8 3.796875 -6.972656 3.796875 -5.296875 C 3.796875 -3.617188 3.960938 -2.644531 4.296875 -2.375 C 4.484375 -2.226562 4.710938 -2.15625 4.984375 -2.15625 C 5.554688 -2.15625 6.316406 -2.351562 7.265625 -2.75 Z M 7.265625 -8.296875 "/></g></g></g><g fill="#fccd04" fill-opacity="1"><g transform="translate(149.067337, 286.311839)"><g/></g></g><g fill="#fccd04" fill-opacity="1"><g transform="translate(158.033656, 286.311839)"><g><path d="M 4.65625 -10.1875 C 4.15625 -9.71875 3.90625 -8.46875 3.90625 -6.4375 C 3.90625 -4.40625 4.171875 -3.125 4.703125 -2.59375 C 5.015625 -2.300781 5.53125 -2.15625 6.25 -2.15625 C 6.96875 -2.15625 7.492188 -2.191406 7.828125 -2.265625 L 7.828125 -5.015625 L 5.96875 -5.140625 L 5.96875 -7.203125 L 10.625 -7.203125 L 10.625 -0.59375 C 10.101562 -0.375 9.4375 -0.179688 8.625 -0.015625 C 7.820312 0.148438 7.082031 0.234375 6.40625 0.234375 C 5.738281 0.234375 5.15625 0.179688 4.65625 0.078125 C 4.15625 -0.0234375 3.660156 -0.222656 3.171875 -0.515625 C 2.691406 -0.816406 2.289062 -1.203125 1.96875 -1.671875 C 1.257812 -2.742188 0.90625 -4.335938 0.90625 -6.453125 C 0.90625 -9.097656 1.441406 -10.882812 2.515625 -11.8125 C 3.054688 -12.28125 3.648438 -12.601562 4.296875 -12.78125 C 4.953125 -12.957031 5.84375 -13.046875 6.96875 -13.046875 C 8.101562 -13.046875 9.316406 -12.890625 10.609375 -12.578125 L 10.28125 -10.25 C 8.632812 -10.4375 7.351562 -10.53125 6.4375 -10.53125 C 5.519531 -10.53125 4.925781 -10.414062 4.65625 -10.1875 Z M 4.65625 -10.1875 "/></g></g></g><g fill="#fccd04" fill-opacity="1"><g transform="translate(174.541425, 286.311839)"><g><path d="M 4.046875 0.234375 C 3.148438 0.234375 2.40625 -0.0703125 1.8125 -0.6875 C 1.21875 -1.3125 0.921875 -2.210938 0.921875 -3.390625 C 0.921875 -4.566406 1.335938 -5.421875 2.171875 -5.953125 C 3.003906 -6.492188 4.21875 -6.765625 5.8125 -6.765625 L 7.171875 -6.765625 C 7.171875 -7.578125 7.09375 -8.097656 6.9375 -8.328125 C 6.78125 -8.566406 6.425781 -8.6875 5.875 -8.6875 C 5.320312 -8.6875 4.707031 -8.625 4.03125 -8.5 C 3.363281 -8.382812 2.613281 -8.207031 1.78125 -7.96875 L 1.203125 -10 C 1.703125 -10.226562 2.414062 -10.441406 3.34375 -10.640625 C 4.269531 -10.847656 5.097656 -10.953125 5.828125 -10.953125 C 7.328125 -10.953125 8.394531 -10.609375 9.03125 -9.921875 C 9.675781 -9.234375 10 -8.234375 10 -6.921875 L 10 0 L 8.21875 0 L 7.859375 -1.1875 L 7.75 -1.1875 C 7.601562 -1.070312 7.410156 -0.9375 7.171875 -0.78125 C 6.929688 -0.625 6.484375 -0.414062 5.828125 -0.15625 C 5.171875 0.101562 4.578125 0.234375 4.046875 0.234375 Z M 7.171875 -4.65625 C 6.753906 -4.71875 6.1875 -4.75 5.46875 -4.75 C 4.757812 -4.75 4.304688 -4.65625 4.109375 -4.46875 C 3.910156 -4.289062 3.8125 -3.945312 3.8125 -3.4375 C 3.8125 -2.925781 3.890625 -2.570312 4.046875 -2.375 C 4.210938 -2.175781 4.46875 -2.078125 4.8125 -2.078125 C 5.4375 -2.078125 6.101562 -2.25 6.8125 -2.59375 L 7.171875 -2.765625 Z M 7.171875 -4.65625 "/></g></g></g><g fill="#fccd04" fill-opacity="1"><g transform="translate(190.466279, 286.311839)"><g><path d="M 4.265625 0 L 1.4375 0 L 1.4375 -10.71875 L 3.25 -10.71875 L 3.578125 -9.640625 L 3.6875 -9.640625 C 4.132812 -9.898438 4.484375 -10.097656 4.734375 -10.234375 C 4.992188 -10.378906 5.382812 -10.539062 5.90625 -10.71875 C 6.425781 -10.894531 6.914062 -10.984375 7.375 -10.984375 C 8.476562 -10.984375 9.265625 -10.519531 9.734375 -9.59375 C 10.171875 -9.875 10.523438 -10.09375 10.796875 -10.25 C 11.078125 -10.414062 11.460938 -10.578125 11.953125 -10.734375 C 12.441406 -10.898438 12.910156 -10.984375 13.359375 -10.984375 C 14.398438 -10.984375 15.132812 -10.632812 15.5625 -9.9375 C 16 -9.238281 16.21875 -8.265625 16.21875 -7.015625 L 16.21875 0 L 13.359375 0 L 13.359375 -6.515625 C 13.359375 -7.453125 13.273438 -8.019531 13.109375 -8.21875 C 12.941406 -8.425781 12.679688 -8.53125 12.328125 -8.53125 C 11.660156 -8.53125 10.945312 -8.269531 10.1875 -7.75 C 10.207031 -7.351562 10.21875 -7.046875 10.21875 -6.828125 L 10.21875 0 L 7.390625 0 L 7.390625 -6.515625 C 7.390625 -7.460938 7.3125 -8.035156 7.15625 -8.234375 C 7 -8.429688 6.753906 -8.53125 6.421875 -8.53125 C 6.097656 -8.53125 5.726562 -8.453125 5.3125 -8.296875 C 4.90625 -8.148438 4.554688 -7.972656 4.265625 -7.765625 Z M 4.265625 0 "/></g></g></g><g fill="#fccd04" fill-opacity="1"><g transform="translate(212.475297, 286.311839)"><g><path d="M 5.828125 0.234375 C 2.523438 0.234375 0.875 -1.628906 0.875 -5.359375 C 0.875 -9.085938 2.515625 -10.953125 5.796875 -10.953125 C 7.265625 -10.953125 8.367188 -10.554688 9.109375 -9.765625 C 9.847656 -8.984375 10.21875 -7.691406 10.21875 -5.890625 L 10.21875 -4.375 L 3.8125 -4.375 C 3.8125 -3.351562 4 -2.675781 4.375 -2.34375 C 4.625 -2.113281 4.984375 -2 5.453125 -2 C 6.296875 -2 7.375 -2.195312 8.6875 -2.59375 L 9.328125 -2.78125 L 10.015625 -0.75 C 9.472656 -0.488281 8.796875 -0.257812 7.984375 -0.0625 C 7.171875 0.132812 6.453125 0.234375 5.828125 0.234375 Z M 7.015625 -8.328125 C 6.796875 -8.597656 6.359375 -8.734375 5.703125 -8.734375 C 5.046875 -8.734375 4.578125 -8.570312 4.296875 -8.25 C 4.015625 -7.9375 3.859375 -7.320312 3.828125 -6.40625 L 7.34375 -6.484375 C 7.320312 -7.441406 7.210938 -8.054688 7.015625 -8.328125 Z M 7.015625 -8.328125 "/></g></g></g><g fill="#fccd04" fill-opacity="1"><g transform="translate(228.072261, 286.311839)"><g/></g></g><g fill="#fccd04" fill-opacity="1"><g transform="translate(237.03858, 286.311839)"><g><path d="M 6.140625 -13.046875 C 9.023438 -13.046875 10.46875 -11.835938 10.46875 -9.421875 C 10.46875 -8.753906 10.320312 -8.203125 10.03125 -7.765625 C 9.738281 -7.328125 9.390625 -7.003906 8.984375 -6.796875 L 8.984375 -6.6875 C 10.191406 -6.175781 10.796875 -5.257812 10.796875 -3.9375 C 10.796875 -2.34375 10.316406 -1.222656 9.359375 -0.578125 C 8.523438 -0.0351562 7.492188 0.234375 6.265625 0.234375 C 5.035156 0.234375 3.453125 0.117188 1.515625 -0.109375 L 1.609375 -6 L 1.515625 -12.796875 C 3.367188 -12.960938 4.910156 -13.046875 6.140625 -13.046875 Z M 4.40625 -2.171875 C 5.132812 -2.097656 5.785156 -2.0625 6.359375 -2.0625 C 6.929688 -2.0625 7.316406 -2.195312 7.515625 -2.46875 C 7.722656 -2.75 7.828125 -3.207031 7.828125 -3.84375 C 7.828125 -4.488281 7.675781 -4.929688 7.375 -5.171875 C 7.082031 -5.410156 6.644531 -5.53125 6.0625 -5.53125 L 4.390625 -5.53125 Z M 4.375 -7.765625 L 6.21875 -7.765625 C 6.726562 -7.765625 7.078125 -7.878906 7.265625 -8.109375 C 7.460938 -8.335938 7.5625 -8.726562 7.5625 -9.28125 C 7.5625 -9.84375 7.445312 -10.234375 7.21875 -10.453125 C 7 -10.679688 6.617188 -10.796875 6.078125 -10.796875 L 4.375 -10.734375 Z M 4.375 -7.765625 "/></g></g></g><g fill="#fccd04" fill-opacity="1"><g transform="translate(253.564571, 286.311839)"><g><path d="M 7.25 -10.71875 L 10.078125 -10.71875 L 10.078125 0 L 8.265625 0 L 7.921875 -1.109375 L 7.8125 -1.109375 C 7.375 -0.835938 7.007812 -0.625 6.71875 -0.46875 C 6.425781 -0.320312 6.035156 -0.164062 5.546875 0 C 5.066406 0.15625 4.613281 0.234375 4.1875 0.234375 C 3.0625 0.234375 2.28125 -0.109375 1.84375 -0.796875 C 1.414062 -1.492188 1.203125 -2.472656 1.203125 -3.734375 L 1.203125 -10.71875 L 4.03125 -10.71875 L 4.03125 -4.015625 C 4.03125 -3.109375 4.109375 -2.582031 4.265625 -2.4375 C 4.421875 -2.289062 4.675781 -2.21875 5.03125 -2.21875 C 5.769531 -2.21875 6.507812 -2.472656 7.25 -2.984375 Z M 7.25 -10.71875 "/></g></g></g><g fill="#fccd04" fill-opacity="1"><g transform="translate(269.671594, 286.311839)"><g><path d="M 10.09375 -13.859375 L 10.09375 0 L 8.265625 0 L 7.984375 -1.03125 L 7.875 -1.03125 C 6.601562 -0.1875 5.460938 0.234375 4.453125 0.234375 C 3.441406 0.234375 2.59375 -0.222656 1.90625 -1.140625 C 1.21875 -2.066406 0.875 -3.445312 0.875 -5.28125 C 0.875 -6.382812 1.003906 -7.320312 1.265625 -8.09375 C 1.523438 -8.875 1.878906 -9.46875 2.328125 -9.875 C 3.128906 -10.59375 4.082031 -10.953125 5.1875 -10.953125 C 5.820312 -10.953125 6.515625 -10.859375 7.265625 -10.671875 L 7.265625 -13.859375 Z M 7.265625 -8.296875 C 6.578125 -8.546875 5.957031 -8.671875 5.40625 -8.671875 C 4.863281 -8.671875 4.5 -8.570312 4.3125 -8.375 C 3.96875 -8 3.796875 -6.972656 3.796875 -5.296875 C 3.796875 -3.617188 3.960938 -2.644531 4.296875 -2.375 C 4.484375 -2.226562 4.710938 -2.15625 4.984375 -2.15625 C 5.554688 -2.15625 6.316406 -2.351562 7.265625 -2.75 Z M 7.265625 -8.296875 "/></g></g></g><g fill="#fccd04" fill-opacity="1"><g transform="translate(285.705749, 286.311839)"><g><path d="M 10.09375 -13.859375 L 10.09375 0 L 8.265625 0 L 7.984375 -1.03125 L 7.875 -1.03125 C 6.601562 -0.1875 5.460938 0.234375 4.453125 0.234375 C 3.441406 0.234375 2.59375 -0.222656 1.90625 -1.140625 C 1.21875 -2.066406 0.875 -3.445312 0.875 -5.28125 C 0.875 -6.382812 1.003906 -7.320312 1.265625 -8.09375 C 1.523438 -8.875 1.878906 -9.46875 2.328125 -9.875 C 3.128906 -10.59375 4.082031 -10.953125 5.1875 -10.953125 C 5.820312 -10.953125 6.515625 -10.859375 7.265625 -10.671875 L 7.265625 -13.859375 Z M 7.265625 -8.296875 C 6.578125 -8.546875 5.957031 -8.671875 5.40625 -8.671875 C 4.863281 -8.671875 4.5 -8.570312 4.3125 -8.375 C 3.96875 -8 3.796875 -6.972656 3.796875 -5.296875 C 3.796875 -3.617188 3.960938 -2.644531 4.296875 -2.375 C 4.484375 -2.226562 4.710938 -2.15625 4.984375 -2.15625 C 5.554688 -2.15625 6.316406 -2.351562 7.265625 -2.75 Z M 7.265625 -8.296875 "/></g></g></g><g fill="#fccd04" fill-opacity="1"><g transform="translate(301.739904, 286.311839)"><g><path d="M 2.125 3.03125 L 3.71875 -0.921875 L -0.078125 -10.71875 L 3.0625 -10.71875 L 4.9375 -3.546875 L 5.046875 -3.546875 L 6.953125 -10.71875 L 9.859375 -10.71875 L 6.078125 -0.5625 L 5.0625 3.03125 Z M 2.125 3.03125 "/></g></g></g><path stroke-linecap="butt" transform="matrix(0.750031, 0, 0, 0.75, 50.251736, 260.766659)" fill="none" stroke-linejoin="miter" d="M 13.002357 1.998622 L 364.993041 1.998622 " stroke="#fccd04" stroke-width="4" stroke-opacity="1" stroke-miterlimit="4"/><path stroke-linecap="butt" transform="matrix(3.000124, 0, 0, 3, 50.251736, 262.266658)" fill="none" stroke-linejoin="round" d="M 0.499401 -0.000344479 L 2.000641 -1.500345 L 3.500579 -0.000344479 L 2.000641 1.499656 Z M 0.499401 -0.000344479 " stroke="#fccd04" stroke-width="1" stroke-opacity="1" stroke-miterlimit="4"/><path stroke-linecap="butt" transform="matrix(3.000124, 0, 0, 3, 333.759972, 262.266658)" fill="none" stroke-linejoin="round" d="M -0.499397 -0.000344479 L -2.000637 -1.500345 L -3.500575 -0.000344479 L -2.000637 1.499656 Z M -0.499397 -0.000344479 " stroke="#fccd04" stroke-width="1" stroke-opacity="1" stroke-miterlimit="4"/></svg>